<?xml version="1.0" encoding="UTF-8"?>
<!DOCTYPE svg PUBLIC "-//W3C//DTD SVG 1.1//EN" "http://www.w3.org/Graphics/SVG/1.1/DTD/svg11.dtd">
<svg xmlns="http://www.w3.org/2000/svg" version="1.1" width="200px" height="200px" style="shape-rendering:geometricPrecision; text-rendering:geometricPrecision; image-rendering:optimizeQuality; fill-rule:evenodd; clip-rule:evenodd" xmlns:xlink="http://www.w3.org/1999/xlink">
<g><path style="opacity:1" fill="#e6e6ea" d="M 107.5,68.5 C 108.167,69.5 108.833,70.5 109.5,71.5C 106.314,71.1046 103.314,70.1046 100.5,68.5C 97.9665,69.7883 95.4665,69.7883 93,68.5C 90.961,70.8745 88.6277,72.8745 86,74.5C 85.5034,72.1902 85.3367,69.8568 85.5,67.5C 88.9922,59.1823 92.9922,51.1823 97.5,43.5C 98.7498,43.4226 99.5831,42.756 100,41.5C 100.514,49.1801 101.181,56.8467 102,64.5C 103.432,66.4388 105.265,67.7721 107.5,68.5 Z"/></g>
<g><path style="opacity:1" fill="#d0d0d3" d="M 105.5,50.5 C 106.949,56.3113 107.616,62.3113 107.5,68.5C 105.265,67.7721 103.432,66.4388 102,64.5C 101.181,56.8467 100.514,49.1801 100,41.5C 99.5831,42.756 98.7498,43.4226 97.5,43.5C 97.795,41.5767 98.6283,39.9101 100,38.5C 102.119,42.4023 103.952,46.4023 105.5,50.5 Z"/></g>
<g><path style="opacity:1" fill="#b7b7bc" d="M 105.5,50.5 C 110.341,58.849 114.675,67.5157 118.5,76.5C 115.262,75.2625 112.262,73.5958 109.5,71.5C 108.833,70.5 108.167,69.5 107.5,68.5C 107.616,62.3113 106.949,56.3113 105.5,50.5 Z"/></g>
<g><path style="opacity:1" fill="#dddde1" d="M 85.5,67.5 C 85.3367,69.8568 85.5034,72.1902 86,74.5C 88.6277,72.8745 90.961,70.8745 93,68.5C 95.4665,69.7883 97.9665,69.7883 100.5,68.5C 103.314,70.1046 106.314,71.1046 109.5,71.5C 112.262,73.5958 115.262,75.2625 118.5,76.5C 119.267,77.172 119.934,78.0053 120.5,79C 132.495,79.4999 144.495,79.6665 156.5,79.5C 156.611,80.1174 156.944,80.6174 157.5,81C 152.04,83.5639 146.706,86.3972 141.5,89.5C 141.218,93.0369 141.218,96.7036 141.5,100.5C 140.448,100.649 139.448,100.483 138.5,100C 139.696,99.3457 139.696,98.8457 138.5,98.5C 135.147,100.448 133.647,103.448 134,107.5C 133.51,106.207 133.343,104.873 133.5,103.5C 134.539,99.3421 134.539,95.3421 133.5,91.5C 133.141,89.629 132.141,88.129 130.5,87C 126.19,83.8405 121.523,81.3405 116.5,79.5C 111.147,77.0807 105.647,74.7473 100,72.5C 94.565,74.4717 89.3983,76.805 84.5,79.5C 77.1456,81.257 70.9789,84.9237 66,90.5C 65.1864,95.0204 65.353,99.3537 66.5,103.5C 66.5751,106.206 66.9084,108.873 67.5,111.5C 67.1667,111.5 66.8333,111.5 66.5,111.5C 57.8859,101.211 49.2193,90.8776 40.5,80.5C 53.5,79.8333 66.5,79.1667 79.5,78.5C 81.2742,74.6112 83.2742,70.9446 85.5,67.5 Z"/></g>
<g><path style="opacity:1" fill="#0e3b87" d="M 116.5,79.5 C 121.523,81.3405 126.19,83.8405 130.5,87C 132.141,88.129 133.141,89.629 133.5,91.5C 130.194,89.5113 126.861,87.5113 123.5,85.5C 122.614,86.325 122.281,87.325 122.5,88.5C 121.5,88.5 120.5,88.5 119.5,88.5C 114.695,85.9291 110.028,83.0957 105.5,80C 109.152,79.5014 112.818,79.3347 116.5,79.5 Z"/></g>
<g><path style="opacity:1" fill="#141728" d="M 88.5,84.5 C 84.4234,89.6097 80.2567,94.6097 76,99.5C 75.3933,103.537 75.56,107.537 76.5,111.5C 79.5448,111.492 82.5448,111.159 85.5,110.5C 83.1092,114.562 81.4425,118.562 80.5,122.5C 85.8975,119.142 91.2308,115.808 96.5,112.5C 97.7079,111.766 99.0413,111.433 100.5,111.5C 106.887,114.778 113.053,118.444 119,122.5C 117.714,116.912 115.548,111.578 112.5,106.5C 113.552,106.351 114.552,106.517 115.5,107C 116.461,109.576 117.961,111.743 120,113.5C 121.271,112.117 122.771,111.117 124.5,110.5C 124.5,111.833 124.5,113.167 124.5,114.5C 124.219,118.188 123.719,121.855 123,125.5C 122.167,126.333 121.333,127.167 120.5,128C 106.837,128.5 93.1707,128.667 79.5,128.5C 77.8267,127.657 76.66,126.324 76,124.5C 75.0619,115.323 73.8952,106.323 72.5,97.5C 72.5494,94.9009 73.5494,92.7342 75.5,91C 79.7444,88.5723 84.0778,86.4056 88.5,84.5 Z"/></g>
<g><path style="opacity:1" fill="#f5ad58" d="M 84.5,79.5 C 86.8333,79.5 89.1667,79.5 91.5,79.5C 84.0953,81.5314 77.0953,84.698 70.5,89C 66.9729,93.1655 65.6395,97.9989 66.5,103.5C 65.353,99.3537 65.1864,95.0204 66,90.5C 70.9789,84.9237 77.1456,81.257 84.5,79.5 Z"/></g>
<g><path style="opacity:1" fill="#b63d2d" d="M 101.5,83.5 C 100.174,87.6139 99.5073,92.1139 99.5,97C 99.5258,101.913 99.8591,106.746 100.5,111.5C 99.0413,111.433 97.7079,111.766 96.5,112.5C 95.5028,112.53 94.8361,112.03 94.5,111C 95.6019,104.607 95.6019,98.4407 94.5,92.5C 95.7951,88.5766 97.6284,84.9099 100,81.5C 100.717,82.0442 101.217,82.7109 101.5,83.5 Z"/></g>
<g><path style="opacity:1" fill="#141a2d" d="M 116.5,79.5 C 112.818,79.3347 109.152,79.5014 105.5,80C 110.028,83.0957 114.695,85.9291 119.5,88.5C 123.558,90.2269 126.225,93.2269 127.5,97.5C 126.883,97.3893 126.383,97.056 126,96.5C 125.565,101.184 125.065,105.851 124.5,110.5C 122.771,111.117 121.271,112.117 120,113.5C 117.961,111.743 116.461,109.576 115.5,107C 114.552,106.517 113.552,106.351 112.5,106.5C 109.019,98.7125 105.352,91.0458 101.5,83.5C 101.217,82.7109 100.717,82.0442 100,81.5C 97.6284,84.9099 95.7951,88.5766 94.5,92.5C 91.5327,98.4347 88.5327,104.435 85.5,110.5C 82.5448,111.159 79.5448,111.492 76.5,111.5C 75.56,107.537 75.3933,103.537 76,99.5C 80.2567,94.6097 84.4234,89.6097 88.5,84.5C 90.2528,82.7775 92.2528,81.2775 94.5,80C 93.552,79.5172 92.552,79.3505 91.5,79.5C 89.1667,79.5 86.8333,79.5 84.5,79.5C 89.3983,76.805 94.565,74.4717 100,72.5C 105.647,74.7473 111.147,77.0807 116.5,79.5 Z"/></g>
<g><path style="opacity:1" fill="#0f2d6e" d="M 133.5,91.5 C 134.539,95.3421 134.539,99.3421 133.5,103.5C 132.532,105.607 132.198,107.941 132.5,110.5C 131.662,110.842 131.328,111.508 131.5,112.5C 129.721,107.722 128.387,102.722 127.5,97.5C 126.225,93.2269 123.558,90.2269 119.5,88.5C 120.5,88.5 121.5,88.5 122.5,88.5C 122.281,87.325 122.614,86.325 123.5,85.5C 126.861,87.5113 130.194,89.5113 133.5,91.5 Z"/></g>
<g><path style="opacity:1" fill="#ea8432" d="M 91.5,79.5 C 92.552,79.3505 93.552,79.5172 94.5,80C 92.2528,81.2775 90.2528,82.7775 88.5,84.5C 84.0778,86.4056 79.7444,88.5723 75.5,91C 73.5494,92.7342 72.5494,94.9009 72.5,97.5C 71.1667,102.167 69.8333,106.833 68.5,111.5C 68.1667,111.5 67.8333,111.5 67.5,111.5C 66.9084,108.873 66.5751,106.206 66.5,103.5C 65.6395,97.9989 66.9729,93.1655 70.5,89C 77.0953,84.698 84.0953,81.5314 91.5,79.5 Z"/></g>
<g><path style="opacity:1" fill="#b3b3b9" d="M 156.5,79.5 C 159.907,79.1253 160.407,80.1253 158,82.5C 150.29,92.6087 142.124,102.275 133.5,111.5C 132.833,111.5 132.5,111.167 132.5,110.5C 132.198,107.941 132.532,105.607 133.5,103.5C 133.343,104.873 133.51,106.207 134,107.5C 133.647,103.448 135.147,100.448 138.5,98.5C 139.696,98.8457 139.696,99.3457 138.5,100C 139.448,100.483 140.448,100.649 141.5,100.5C 141.218,96.7036 141.218,93.0369 141.5,89.5C 146.706,86.3972 152.04,83.5639 157.5,81C 156.944,80.6174 156.611,80.1174 156.5,79.5 Z"/></g>
<g><path style="opacity:1" fill="#a3342c" d="M 94.5,92.5 C 95.6019,98.4407 95.6019,104.607 94.5,111C 94.8361,112.03 95.5028,112.53 96.5,112.5C 91.2308,115.808 85.8975,119.142 80.5,122.5C 81.4425,118.562 83.1092,114.562 85.5,110.5C 88.5327,104.435 91.5327,98.4347 94.5,92.5 Z"/></g>
<g><path style="opacity:1" fill="#e4712c" d="M 101.5,83.5 C 105.352,91.0458 109.019,98.7125 112.5,106.5C 115.548,111.578 117.714,116.912 119,122.5C 113.053,118.444 106.887,114.778 100.5,111.5C 99.8591,106.746 99.5258,101.913 99.5,97C 99.5073,92.1139 100.174,87.6139 101.5,83.5 Z"/></g>
<g><path style="opacity:1" fill="#69616e" d="M 132.5,110.5 C 132.5,111.167 132.833,111.5 133.5,111.5C 132.962,113.117 132.629,114.784 132.5,116.5C 131.566,115.432 131.232,114.099 131.5,112.5C 131.328,111.508 131.662,110.842 132.5,110.5 Z"/></g>
<g><path style="opacity:0.314" fill="#56483f" d="M 66.5,111.5 C 66.8333,111.5 67.1667,111.5 67.5,111.5C 67.8333,111.5 68.1667,111.5 68.5,111.5C 68.7373,112.791 68.404,113.791 67.5,114.5C 67.4431,113.391 67.1098,112.391 66.5,111.5 Z"/></g>
<g><path style="opacity:1" fill="#d0433a" d="M 141.5,147.5 C 141.698,149.575 141.865,151.575 142,153.5C 139.297,150.629 136.464,147.962 133.5,145.5C 131.633,141.466 128.633,138.633 124.5,137C 110.951,134.029 97.2845,131.862 83.5,130.5C 81.847,130.34 80.5137,129.674 79.5,128.5C 93.1707,128.667 106.837,128.5 120.5,128C 121.333,127.167 122.167,126.333 123,125.5C 123.719,121.855 124.219,118.188 124.5,114.5C 125.309,112.708 125.809,110.708 126,108.5C 128.629,116.05 131.462,123.55 134.5,131C 134.167,131.333 133.833,131.667 133.5,132C 135.356,137.627 138.023,142.793 141.5,147.5 Z"/></g>
<g><path style="opacity:1" fill="#d7d6da" d="M 72.5,97.5 C 73.8952,106.323 75.0619,115.323 76,124.5C 76.66,126.324 77.8267,127.657 79.5,128.5C 80.5137,129.674 81.847,130.34 83.5,130.5C 87.8625,132.177 92.1958,134.177 96.5,136.5C 97.2975,136.957 97.6309,137.624 97.5,138.5C 85.2876,144.106 72.9543,149.439 60.5,154.5C 59.448,154.649 58.448,154.483 57.5,154C 59.0488,152.786 60.2155,151.286 61,149.5C 61.4397,143.098 62.273,136.765 63.5,130.5C 64.5234,125.073 65.8567,119.74 67.5,114.5C 68.404,113.791 68.7373,112.791 68.5,111.5C 69.8333,106.833 71.1667,102.167 72.5,97.5 Z"/></g>
<g><path style="opacity:1" fill="#a83933" d="M 127.5,97.5 C 128.387,102.722 129.721,107.722 131.5,112.5C 131.232,114.099 131.566,115.432 132.5,116.5C 135.668,126.682 138.668,137.015 141.5,147.5C 138.023,142.793 135.356,137.627 133.5,132C 133.833,131.667 134.167,131.333 134.5,131C 131.462,123.55 128.629,116.05 126,108.5C 125.809,110.708 125.309,112.708 124.5,114.5C 124.5,113.167 124.5,111.833 124.5,110.5C 125.065,105.851 125.565,101.184 126,96.5C 126.383,97.056 126.883,97.3893 127.5,97.5 Z"/></g>
<g><path style="opacity:1" fill="#9c2e2b" d="M 83.5,130.5 C 97.2845,131.862 110.951,134.029 124.5,137C 128.633,138.633 131.633,141.466 133.5,145.5C 131.864,146.246 130.197,145.912 128.5,144.5C 125.562,145.575 122.562,145.741 119.5,145C 120.5,144.667 121.5,144.333 122.5,144C 121.464,142.383 120.297,142.216 119,143.5C 116.618,141.548 114.118,141.215 111.5,142.5C 107.061,141.52 102.895,139.854 99,137.5C 98.6174,138.056 98.1174,138.389 97.5,138.5C 97.6309,137.624 97.2975,136.957 96.5,136.5C 92.1958,134.177 87.8625,132.177 83.5,130.5 Z"/></g>
<g><path style="opacity:1" fill="#a8aab1" d="M 63.5,130.5 C 62.273,136.765 61.4397,143.098 61,149.5C 60.2155,151.286 59.0488,152.786 57.5,154C 58.448,154.483 59.448,154.649 60.5,154.5C 60.1583,155.338 59.4916,155.672 58.5,155.5C 57.5084,155.672 56.8417,155.338 56.5,154.5C 58.0586,146.169 60.3919,138.169 63.5,130.5 Z"/></g>
<g><path style="opacity:1" fill="#7d2625" d="M 133.5,145.5 C 136.464,147.962 139.297,150.629 142,153.5C 141.865,151.575 141.698,149.575 141.5,147.5C 143.072,150.215 144.072,153.215 144.5,156.5C 133.109,152.597 122.109,147.93 111.5,142.5C 114.118,141.215 116.618,141.548 119,143.5C 120.297,142.216 121.464,142.383 122.5,144C 121.5,144.333 120.5,144.667 119.5,145C 122.562,145.741 125.562,145.575 128.5,144.5C 130.197,145.912 131.864,146.246 133.5,145.5 Z"/></g>
<g><path style="opacity:0.2" fill="#2b2d30" d="M 56.5,154.5 C 56.8417,155.338 57.5084,155.672 58.5,155.5C 57.6136,156.776 56.6136,156.776 55.5,155.5C 55.6236,154.893 55.9569,154.56 56.5,154.5 Z"/></g>
</svg>
